<svg width="40" height="45" viewBox="0 0 40 45" fill="none" xmlns="http://www.w3.org/2000/svg">
<path d="M35.1854 0C37.782 0 39.8763 2.09982 40 4.57085V44.3234L35.0561 40.1256L32.3413 37.6546L29.379 35.0727L30.6164 39.1449H4.69089C2.10167 39.1449 0 37.1781 0 34.5722V4.58008C0 2.10905 2.10536 0.00554042 4.70012 0.00554042H35.1724L35.1854 0ZM23.8866 10.4954H23.8312L23.4581 10.8648C27.2866 11.9729 29.1389 13.7033 29.1389 13.7033C26.6716 12.4696 24.448 11.8528 22.2245 11.6035C20.6178 11.3542 19.011 11.4853 17.6536 11.6035H17.2843C16.4163 11.6035 14.5695 11.9729 12.0947 12.9609C11.2323 13.3358 10.7373 13.5814 10.7373 13.5814C10.7373 13.5814 12.5878 11.7309 16.6656 10.7429L16.4163 10.4936C16.4163 10.4936 13.3284 10.3754 9.99492 12.839C9.99492 12.839 6.66143 18.6454 6.66143 25.8036C6.66143 25.8036 8.50824 29.017 13.574 29.1389C13.574 29.1389 14.3128 28.1546 15.0607 27.2884C12.2166 26.4241 11.1085 24.6955 11.1085 24.6955C11.1085 24.6955 11.356 24.8174 11.7272 25.0649H11.838C11.8934 25.0649 11.9193 25.0926 11.9488 25.1203V25.1314C11.9784 25.1609 12.0042 25.1868 12.0597 25.1868C12.6691 25.4379 13.2785 25.6854 13.7772 25.9255C14.8436 26.382 15.959 26.7141 17.1014 26.9154C18.819 27.1647 20.7877 27.2847 23.0297 26.9154C24.1378 26.6661 25.2459 26.4223 26.3539 25.9273C27.0742 25.558 27.9607 25.1886 28.9339 24.5662C28.9339 24.5662 27.8258 26.2948 24.8617 27.1591C25.4712 28.0198 26.3299 29.006 26.3299 29.006C31.3976 28.8951 33.3663 25.6817 33.4771 25.8184C33.4771 18.6712 30.1251 12.8538 30.1251 12.8538C27.1056 10.6118 24.28 10.5268 23.7813 10.5268L23.8848 10.4899L23.8866 10.4954ZM24.1969 18.6454C25.4952 18.6454 26.5423 19.7535 26.5423 21.1109C26.5423 22.4775 25.4896 23.5856 24.1969 23.5856C22.9041 23.5856 21.8514 22.4775 21.8514 21.1219C21.8551 19.7553 22.9096 18.6509 24.1969 18.6509V18.6454ZM15.8068 18.6454C17.0996 18.6454 18.1449 19.7535 18.1449 21.1109C18.1449 22.4775 17.0922 23.5856 15.7994 23.5856C14.5067 23.5856 13.454 22.4775 13.454 21.1219C13.454 19.7553 14.5067 18.6509 15.7994 18.6509L15.8068 18.6454Z" fill="#6D62E9"/>
</svg>
