<svg width="40" height="41" viewBox="0 0 40 41" fill="none" xmlns="http://www.w3.org/2000/svg">
<path d="M29.1635 24.0844C28.6661 23.8349 26.2195 22.6325 25.764 22.4651C25.3068 22.2993 24.9752 22.2172 24.642 22.7162C24.3121 23.2136 23.3576 24.3339 23.0679 24.6655C22.7781 24.9988 22.4868 25.0389 21.9894 24.7911C21.492 24.5399 19.8878 24.0158 17.9871 22.321C16.5084 21.0014 15.5086 19.372 15.2189 18.873C14.9292 18.3756 15.1888 18.106 15.4366 17.8582C15.661 17.6355 15.9357 17.2771 16.1835 16.9874C16.433 16.696 16.5151 16.4883 16.6825 16.1551C16.8483 15.8235 16.7663 15.5338 16.6407 15.2843C16.5151 15.0348 15.5204 12.5848 15.1067 11.5884C14.7015 10.6188 14.2912 10.7511 13.9864 10.7344C13.6684 10.7217 13.3501 10.7161 13.0319 10.7176C12.7003 10.7176 12.1611 10.8415 11.7056 11.3406C11.2501 11.8379 9.96397 13.042 9.96397 15.492C9.96397 17.9402 11.7474 20.3065 11.9953 20.6397C12.2448 20.9713 15.5053 25.9985 20.4973 28.1537C21.6846 28.6662 22.6107 28.9726 23.3341 29.2004C24.5264 29.5805 25.6116 29.5269 26.4673 29.398C27.4235 29.2556 29.4113 28.1939 29.8266 27.0317C30.2419 25.8696 30.2419 24.8732 30.1163 24.6655C29.9924 24.4579 29.6625 24.3339 29.1635 24.0844ZM20.0837 36.4816H20.077C17.1125 36.4818 14.2026 35.6848 11.652 34.174L11.0474 33.8156L4.78271 35.4601L6.45397 29.3511L6.06044 28.7248C4.4033 26.086 3.52664 23.0322 3.53177 19.9163C3.53344 10.7896 10.9604 3.36437 20.0904 3.36437C24.5114 3.36437 28.6678 5.08923 31.7926 8.21741C33.3344 9.7524 34.5564 11.5779 35.388 13.5883C36.2196 15.5987 36.6442 17.7541 36.6373 19.9297C36.6323 29.0564 29.207 36.4816 20.0837 36.4816ZM34.1722 5.84113C32.3271 3.98385 30.1318 2.51122 27.7134 1.50856C25.295 0.50591 22.7017 -0.00682615 20.0837 6.86217e-05C9.10657 6.86217e-05 0.172486 8.93415 0.167462 19.9146C0.167462 23.4246 1.08348 26.8509 2.82675 29.8702L0 40.1909L10.5585 37.4211C13.4783 39.0118 16.7503 39.8455 20.0753 39.8459H20.0837C31.0591 39.8459 39.9949 30.9118 39.9999 19.9297C40.008 17.3127 39.4971 14.7201 38.4968 12.3019C37.4965 9.8836 36.0266 7.68768 34.1722 5.84113Z" fill="#23C158"/>
</svg>
